<?xml version="1.0" encoding="UTF-8"?>
<svg width="800" height="600" viewBox="0 0 800 600" fill="none" xmlns="http://www.w3.org/2000/svg">
  <rect width="800" height="600" rx="12" fill="#1A1A1A"/>
  
  <!-- Central Hub -->
  <g transform="translate(360, 260)">
    <circle cx="40" cy="40" r="60" fill="#9333EA"/>
    <text x="40" y="35" fill="white" font-family="Inter" font-size="14" text-anchor="middle">SKILL</text>
    <text x="40" y="55" fill="white" font-family="Inter" font-size="14" text-anchor="middle">SWAP</text>
  </g>

  <!-- Community Members -->
  <!-- Top Left Member -->
  <g transform="translate(100, 100)">
    <circle cx="40" cy="40" r="40" fill="#7E22CE"/>
    <text x="40" y="35" fill="white" font-family="Inter" font-size="12" text-anchor="middle">UI/UX</text>
    <text x="40" y="55" fill="white" font-family="Inter" font-size="12" text-anchor="middle">Expert</text>
    <circle cx="70" cy="20" r="8" fill="#22C55E"/>
  </g>

  <!-- Top Right Member -->
  <g transform="translate(620, 100)">
    <circle cx="40" cy="40" r="40" fill="#7E22CE"/>
    <text x="40" y="35" fill="white" font-family="Inter" font-size="12" text-anchor="middle">Backend</text>
    <text x="40" y="55" fill="white" font-family="Inter" font-size="12" text-anchor="middle">Dev</text>
    <circle cx="70" cy="20" r="8" fill="#22C55E"/>
  </g>

  <!-- Bottom Left Member -->
  <g transform="translate(100, 420)">
    <circle cx="40" cy="40" r="40" fill="#7E22CE"/>
    <text x="40" y="35" fill="white" font-family="Inter" font-size="12" text-anchor="middle">Mobile</text>
    <text x="40" y="55" fill="white" font-family="Inter" font-size="12" text-anchor="middle">Dev</text>
    <circle cx="70" cy="20" r="8" fill="#22C55E"/>
  </g>

  <!-- Bottom Right Member -->
  <g transform="translate(620, 420)">
    <circle cx="40" cy="40" r="40" fill="#7E22CE"/>
    <text x="40" y="35" fill="white" font-family="Inter" font-size="12" text-anchor="middle">Data</text>
    <text x="40" y="55" fill="white" font-family="Inter" font-size="12" text-anchor="middle">Science</text>
    <circle cx="70" cy="20" r="8" fill="#22C55E"/>
  </g>

  <!-- Connection Lines with Labels -->
  <g>
    <!-- Top Left Connection -->
    <path d="M 180 180 L 360 260" stroke="#252525" stroke-width="4"/>
    <rect x="220" y="190" width="100" height="30" rx="15" fill="#333"/>
    <text x="270" y="210" fill="#E5E7EB" font-family="Inter" font-size="12" text-anchor="middle">Teaching React</text>

    <!-- Top Right Connection -->
    <path d="M 620 180 L 440 260" stroke="#252525" stroke-width="4"/>
    <rect x="480" y="190" width="100" height="30" rx="15" fill="#333"/>
    <text x="530" y="210" fill="#E5E7EB" font-family="Inter" font-size="12" text-anchor="middle">Learning UI</text>

    <!-- Bottom Left Connection -->
    <path d="M 180 420 L 360 340" stroke="#252525" stroke-width="4"/>
    <rect x="220" y="350" width="100" height="30" rx="15" fill="#333"/>
    <text x="270" y="370" fill="#E5E7EB" font-family="Inter" font-size="12" text-anchor="middle">Group Study</text>

    <!-- Bottom Right Connection -->
    <path d="M 620 420 L 440 340" stroke="#252525" stroke-width="4"/>
    <rect x="480" y="350" width="100" height="30" rx="15" fill="#333"/>
    <text x="530" y="370" fill="#E5E7EB" font-family="Inter" font-size="12" text-anchor="middle">Mentoring</text>
  </g>

  <!-- Community Stats -->
  <g transform="translate(40, 40)">
    <rect width="720" height="40" rx="20" fill="#252525"/>
    <text x="60" y="25" fill="#E5E7EB" font-family="Inter" font-size="14">Active Members: 1.2k</text>
    <text x="240" y="25" fill="#E5E7EB" font-family="Inter" font-size="14">Live Sessions: 24</text>
    <text x="420" y="25" fill="#E5E7EB" font-family="Inter" font-size="14">Skills Shared: 156</text>
    <text x="600" y="25" fill="#E5E7EB" font-family="Inter" font-size="14">Groups: 45</text>
  </g>
</svg> 