<?xml version="1.0" encoding="UTF-8"?>
<svg width="800" height="600" viewBox="0 0 800 600" fill="none" xmlns="http://www.w3.org/2000/svg">
  <rect width="800" height="600" rx="12" fill="#1A1A1A"/>
  
  <!-- Session Header -->
  <g transform="translate(40, 40)">
    <rect width="720" height="60" rx="12" fill="#252525"/>
    <circle cx="40" cy="30" r="20" fill="#7E22CE"/>
    <text x="40" y="35" fill="white" font-family="Inter" font-size="14" text-anchor="middle">JS</text>
    <circle cx="90" cy="30" r="20" fill="#9333EA"/>
    <text x="90" y="35" fill="white" font-family="Inter" font-size="14" text-anchor="middle">PY</text>
    <rect x="130" y="18" width="200" height="24" rx="6" fill="#333"/>
    <text x="145" y="35" fill="#E5E7EB" font-family="Inter" font-size="14">React Component Session</text>
    <circle cx="680" cy="30" r="8" fill="#22C55E"/>
    <text x="700" y="35" fill="#E5E7EB" font-family="Inter" font-size="12">Live</text>
  </g>

  <!-- Chat Messages -->
  <g transform="translate(40, 120)">
    <!-- User 1 Message -->
    <rect width="300" height="80" rx="20" fill="#252525"/>
    <text x="20" y="30" fill="#E5E7EB" font-family="Inter" font-size="14">Can you explain the useEffect hook?</text>
    <text x="20" y="60" fill="#E5E7EB" font-family="Inter" font-size="12">I'm new to React</text>
    
    <!-- User 2 Message -->
    <g transform="translate(420, 40)">
      <rect width="300" height="100" rx="20" fill="#9333EA"/>
      <text x="20" y="30" fill="white" font-family="Inter" font-size="14">Sure! useEffect runs after render.</text>
      <text x="20" y="60" fill="white" font-family="Inter" font-size="12">It's like componentDidMount and</text>
      <text x="20" y="80" fill="white" font-family="Inter" font-size="12">componentDidUpdate combined.</text>
    </g>
    
    <!-- User 1 Message -->
    <g transform="translate(0, 160)">
      <rect width="300" height="60" rx="20" fill="#252525"/>
      <text x="20" y="35" fill="#E5E7EB" font-family="Inter" font-size="14">Ah, that makes sense!</text>
    </g>
    
    <!-- User 2 Message -->
    <g transform="translate(420, 200)">
      <rect width="300" height="80" rx="20" fill="#9333EA"/>
      <text x="20" y="30" fill="white" font-family="Inter" font-size="14">Let me show you an example</text>
      <text x="20" y="60" fill="white" font-family="Inter" font-size="12">*shares code snippet*</text>
    </g>
  </g>

  <!-- Collaboration Tools -->
  <g transform="translate(40, 480)">
    <rect width="720" height="80" rx="12" fill="#252525"/>
    <!-- Tool Icons -->
    <circle cx="60" cy="40" r="20" fill="#7E22CE"/>
    <text x="60" y="45" fill="white" font-family="Inter" font-size="12" text-anchor="middle">Chat</text>
    
    <circle cx="140" cy="40" r="20" fill="#7E22CE"/>
    <text x="140" y="45" fill="white" font-family="Inter" font-size="12" text-anchor="middle">Video</text>
    
    <circle cx="220" cy="40" r="20" fill="#7E22CE"/>
    <text x="220" y="45" fill="white" font-family="Inter" font-size="12" text-anchor="middle">Code</text>
    
    <circle cx="300" cy="40" r="20" fill="#7E22CE"/>
    <text x="300" y="45" fill="white" font-family="Inter" font-size="12" text-anchor="middle">Draw</text>
    
    <!-- Session Timer -->
    <rect x="520" y="20" width="160" height="40" rx="20" fill="#333"/>
    <text x="600" y="45" fill="#E5E7EB" font-family="Inter" font-size="14" text-anchor="middle">45:23</text>
  </g>
</svg> 